<svg id="svg8" height="512" viewBox="0 0 135.46666 135.46666" width="512" xmlns="http://www.w3.org/2000/svg" xmlns:svg="http://www.w3.org/2000/svg"><clipPath id="clipPath5136"><rect id="rect5138" height="89.013" rx="7.858" width="87.501" x="-68.036" y="22.301"/></clipPath><clipPath id="clipPath3786"><path id="rect3788" d="m84.667 15.119h79.375v72.571h-79.375z" paint-order="fill markers stroke"/></clipPath><g id="layer1"><g id="g4582" transform="matrix(1.02 0 0 1.02 -11.216 .017)"><g id="g7740" transform="matrix(.985 0 0 .985 5.218 -2.994)"><g id="g4934"><g stroke-linecap="round" stroke-linejoin="round"><path id="path4405" d="m36.606165 12.60279c-1.729768.731825-24.150569 13.172853-24.150569 20.424576 0 7.251721.931751 44.707865 5.256173 54.620769 4.324421 9.912907 7.850488 13.172855 32.932132 14.436915 25.081646 1.26406 34.861491-1.46365 38.653677-3.725655 3.792184-2.262004 15.368332-15.767505 14.769562-20.757222s-37.417426-34.874923-37.981949-35.815793c-.56452-.940868-29.479026-29.18359-29.479026-29.18359z" fill="#ffac17" stroke-width="9.957"/><path id="path4397" d="m32.341087 14.825201c4.296095-4.9381547 25.019596-5.9439357 40.894168-4.670233 15.874573 1.273699 22.068852 1.943208 24.410555 4.882517 2.47831 3.110768 16.6783 66.232397 5.28725 70.053502-11.391053 3.821098-55.658353 4.473096-62.392226-1.485985-4.774123-4.224813-12.495845-63.841645-8.199747-68.779801z" fill="#ffc517" stroke-width="11.233"/><path id="path5577" d="m98.28686 87.550109s1.82393 2.649276 1.167307 7.395849c-.656617 4.74657 1.852833 5.387222 3.348863 5.181092 1.49605-.20612 2.86487-7.468543.49525-10.573775-2.3696-3.105237-5.01142-2.003166-5.01142-2.003166z" fill="#ff4b3d" stroke-width="7.602"/><path id="path4439" d="m44.35596 66.430491 51.794164-4.795415s-8.449256 20.956814-9.713317 21.023342c-1.264063.06653-4.124834 0-4.390952.06653-.266117.06653-34.528843-.864883-34.528843-.864883z" fill="#ffac17" stroke-width="9.957"/><path id="path4428" d="m44.355961 66.430491c7.2447-.282262 23.898102-1.881741 25.497579-.09409 1.599479 1.787652 2.916697 14.395311-.09409 15.05392-3.010784.658609-22.532454 1.738246-24.22602.421028-1.693563-1.317215-3.435558-14.816336-1.177469-15.380858z" fill="#fff" stroke-width="9.957"/><path id="path5575" d="m95.438797 65.606271c-1.618837.01454-2.947792.09284-3.613087.275794-2.661184.731825-7.917053 3.526035-9.314173 5.788041-1.397121 2.262006 1.064633 6.453502 1.264221 7.71756.19959 1.264063 2.257793 5.646032 2.257793 5.646032 5.825838 2.001958 15.115719 3.834996 15.716569 4.681269.81702 1.150719 1.31355 4.386052.77284 7.490135-1.07492 6.170858 1.61489 10.054518 1.58324 13.117118-.0316 3.0626-1.36097 6.44552-.94109 8.85572s-6.489095 2.70177-4.551095 6.11941c.29038.51208.933249 1.14393 1.816315 1.80294.00027.00016.0008.00026.001.00053 2.96706 1.41119 6.20536 1.5515 7.09909 1.5045.89383-.047 1.31751.0468 4.6576.28197 3.34009.23521 2.25809-1.27018 3.62235-4.28096 1.36426-3.01079 1.69326-5.45668 2.58709-12.04277s2.19863-10.37258 2.19863-10.37258.00052.00053.00052.00053c-.5035-6.178364-.82252-10.835998.85208-11.180911 3.50506-.721931 15.19666-9.113113 3.05636-15.981047 0 0-9.08046-5.108504-16.74256-8.936503h-.00053c-.001-.000084-7.46707-.530367-12.323194-.486754z" fill="#7738c7" stroke-width="7.602"/><path id="path5579" d="m118.92271 101.7977c-1.1838.0837-2.38383.87324-3.14737 2.30678-1.57895 2.96445-2.75631 9.42674-2.67696 15.14938.13595 9.80499-7.32515 9.38908-12.66782 7.84625.0804.06.16975.12382.25485.18582 5.17962 3.70207 17.69881 8.00514 19.87415-2.93462 1.35873-6.83303.58706-15.40701.0367-22.16043-.5186-.30452-1.0939-.43419-1.67357-.39318z" fill="#ff4b3d" stroke-width="7.602"/><path id="path5588" d="m101.48637 89.519557c.12553.06958.22106.135712.26364.195672.60083.846245 1.02701 2.82061.99614 5.040371.29755.03705.63343.02379 1.0134-.05094 4.03963-.794561 5.33087-3.290159 2.77605-4.034924-1.77952-.51875-3.89361-.936404-5.04923-1.150179z" fill="#171d8f" stroke-width="7.602"/><path id="path5593" d="m94.096943 61.961562c-6.142169.624492-14.775202 3.738642-16.195615 7.451535-1.818129 4.7525 1.365412 10.688908 3.753034 13.432811.631685.725944 2.283222 1.467742 4.379012 2.187938 2.529096-.368315 4.746295-1.409297 2.565893-4.188456-4.070727-5.188556-4.398504-8.043968.658732-11.165379 3.315738-2.046531 11.315651-3.365648 18.504721-3.586952-3.96879-1.982807-7.56393-3.628218-9.30517-4.029089-1.116239-.256988-2.640809-.277264-4.360607-.102408z" fill="#ff4b3d" stroke-width="7.602"/><path id="path4407" d="m60.752739 9.6528741c-1.750169-.00316-3.493905.024329-5.21073.080268.539411 3.3782959 1.633166 9.1809319 3.016224 10.6957089 1.975827 2.164 3.763553-3.010786 6.021641-1.317219 2.258089 1.693566 3.293046 2.069841 4.610264.564449 1.317218-1.505393 3.293195-.188174 4.798586.658609s1.693274-.84671 1.599185-2.540276c-.04525-.81448-1.093758-4.26424-2.167752-7.623915-.06618-.0053-.118191-.0101-.184718-.01544-3.968644-.3184252-8.240383-.4945252-12.4827-.502189z" fill="#fff" stroke-width="9.957"/><path id="path4448" d="m45.82858 68.401607s2.228741-.332648 2.594654-.03327c.365912.299383 1.962623 11.642675 1.496915 12.008588-.465707.365913-2.661183.299383-3.126888.199587-.465708-.0998-2.461594-11.875527-.964681-12.17491z" fill="#7738c7" stroke-width="9.957"/><path id="path4450" d="m50.043357 68.295396s.705655 6.797786.823261 8.467831c.117609 1.670043.164652 3.316566.446914 3.410655.282261.09409.682132.02352.846784-.02353.164652-.04704-1.082-11.408049-1.152566-11.80792-.07057-.399868-.987913-.493957-.964393-.04704z" fill="#7738c7" stroke-width="9.957"/><path id="path4452" d="m52.419055 68.22483s.611566 11.925529.917347 12.043138c.305784.117609 1.764132.04704 2.14048-.04704.37635-.09409-.752696-11.80792-.799739-12.113702-.04704-.305784-2.258088-.493957-2.258088.117607z" fill="#7738c7" stroke-width="9.957"/><path id="path4454" d="m55.782666 68.107223s.588043 11.760875.705652 11.902007c.117609.141129.493957.02352.729175.02352.235216 0-.564523-11.784397-.729175-11.996093-.164652-.211695-.729175-.188175-.705652.07057z" fill="#7738c7" stroke-width="9.957"/><path id="path4456" d="m57.71145 68.013134s.329305 11.713834.56452 11.831443c.235219.11761 1.411307.164653 1.670046-.02353.258738-.188173-.682132-11.478616-.752695-11.737354-.07057-.258739-1.505394-.329305-1.481871-.07057z" fill="#7738c7" stroke-width="9.957"/><path id="path4458" d="m60.698711 67.989614s.329305 11.478616.658609 11.619745c.329305.141129 2.916698.07057 3.457698-.117609.541-.188173-.682129-11.455093-.752695-11.666788-.07057-.211696-3.363612-.376348-3.363612.164652z" fill="#7738c7" stroke-width="9.957"/><path id="path4460" d="m65.356018 67.801439s.823261 11.031702.823261 11.313963c0 .282262.846784.211696 1.082003.09409.235215-.11761-.870305-11.102266-.893828-11.40805-.02352-.305782-1.011436-.258739-1.011436 0z" fill="#7738c7" stroke-width="9.957"/><path id="path4462" d="m67.472977 67.848482s.729175 10.914093.940871 11.055225c.211695.141129.470433.446914.752695-.02353.282261-.470434-.635086-10.89057-.682132-11.149311-.04704-.258738-1.058477-.235215-1.011434.117609z" fill="#7738c7" stroke-width="9.957"/><path id="path4466" d="m85.438864 32.162481c0 .532238-10.91085 16.366272-20.624164 19.692751-9.713317 3.326479 8.914959.931413 14.902622-4.124834 5.98766-5.056245 8.382723-14.370384 8.249666-17.031568-.13306-2.661182-2.528124 1.463651-2.528124 1.463651z" fill="#ffac17" stroke-width="9.957"/><path id="path4468" d="m40.04869 80.683288s-13.780089 15.595116-13.100923 16.274282c.768651.768651 16.650629-13.490644 16.650629-13.490644z" fill="#ffc517" stroke-width="9.957"/></g><g id="g10639-2-1" transform="matrix(-.838 -.514 .514 -.838 165.479 111.995)"><path id="path10633-0-1" d="m95.422097 50.347111s-2.103383 13.349998-9.459261 13.406988c-.03532.000274-2.337442.000411-2.372825.000411-7.404702 0-13.407398-6.002697-13.407398-13.407399s6.002696-13.407399 13.407398-13.407399c.02352 0 2.882036.000061 2.905526.000181 7.372263.03796 8.926564 6.026032 8.926564 13.407218z" fill="#ffac17" stroke-linecap="round" stroke-linejoin="round" stroke-width="2.279"/><path id="path10635-1-5" d="m99.938273 50.347111a13.407399 13.407399 0 0 1 -13.407399 13.407399 13.407399 13.407399 0 0 1 -13.407398-13.407399 13.407399 13.407399 0 0 1 13.407398-13.407399 13.407399 13.407399 0 0 1 13.407399 13.407399z" fill="#ffc517" stroke-linecap="round" stroke-linejoin="round" stroke-width="2.279"/><path id="path10637-92-1" d="m86.310755 41.383342a.995695.995695 0 0 0 -.99614.995629v.957557c-.36504.158125-.72577.381243-1.06818.674045-.84861.725629-1.33551 1.563609-1.4546 2.39672-.11905.833114.12084 1.585607.44147 2.165178.60527 1.094099 1.51393 1.730065 1.61719 1.800368a.995695.995695 0 0 0 .0911.06277s1.55505.955655 2.6298 2.087483c.53738.565916.90839 1.173085.97968 1.538985.0713.365899.0933.512782-.52174.930285-1.40242.952033-2.08359.666067-2.70338.252637-.61978-.413432-.98689-1.071783-.98689-1.071783a.995695.995695 0 0 0 -1.345-.420891.995695.995695 0 0 0 -.42089 1.34243s.53358 1.063978 1.64755 1.80706c.30977.206637.68053.376753 1.09391.490353v.922569a.995695.995695 0 0 0 .99614.996146.995695.995695 0 0 0 .99564-.996146v-.871113c.59282-.12486 1.21491-.377468 1.84204-.803195 1.07881-.732355 1.5573-1.940373 1.3589-2.958596-.19838-1.018228-.82406-1.82636-1.49319-2.531014-1.27826-1.346147-2.84952-2.301599-2.99153-2.386944-.0111-.0084-.6951-.522311-1.04605-1.156681-.17689-.319783-.25676-.619609-.21405-.918451.0427-.298845.20052-.67121.7785-1.16543.51004-.436128.84146-.498254 1.14021-.478005.29877.02027.62533.171001.94521.423978.63978.505951 1.10317 1.314131 1.10317 1.314131a.995695.995695 0 0 0 1.34912.403398.995695.995695 0 0 0 .40288-1.349633s-.56639-1.097403-1.61925-1.930035c-.41909-.331425-.94084-.635226-1.55596-.774893v-.753286a.995695.995695 0 0 0 -.99564-.995629z" fill="#fff" font-variant-ligatures="normal" font-variant-position="normal" font-variant-caps="normal" font-variant-numeric="normal" font-variant-alternates="normal" font-variant-east-asian="normal" font-feature-settings="normal" font-variation-settings="normal" text-indent="0" text-align="start" text-decoration-line="none" text-decoration-style="solid" text-decoration-color="#000000" text-transform="none" text-orientation="mixed" white-space="normal" shape-padding="0" shape-margin="0" inline-size="0" isolation="auto" mix-blend-mode="normal" solid-color="#000000" solid-opacity="1" vector-effect="none" paint-order="stroke fill markers"/></g></g></g></g></g></svg>