<svg height="512" viewBox="0 0 512 512" width="512" xmlns="http://www.w3.org/2000/svg"><g id="Stickers"><path d="m481.6 80.39c-180.19-71.86-170.6-71.05-182.69-71.05a35.16 35.16 0 0 0 -32.42 21.44l-1.49 3.63c-46-21.35-49.76-26.55-62.13-26.55a32.23 32.23 0 0 0 -28 16.3l-55.64 98.07a32.3 32.3 0 0 0 11.77 43.69l62.59 36.33-21.38 50.3-22.09-38.46-31.37 13c-17.55-21.7-41.45-44.68-63.92-44.68a30.5 30.5 0 0 0 -17.09 5.1c-24 15.89-15.84 48.46-3.22 74.38l-28.34 11.69 70.82 234.28c56.13-24.93 101-48 132-65.91 110.88 39.3 107.42 40.45 118.18 40.45.11 0 23.15.48 32.44-21.51l141.22-334.14a35.19 35.19 0 0 0 -19.24-46.36zm-429.2 129.23a4.27 4.27 0 0 1 2.51-.67c8.09 0 23 11.38 38.13 28.74l-33.89 14c-10.48-20.96-13.33-37.69-6.75-42.07z" fill="#fff"/><path d="m276.2 34.91-144.6 340.22a24.65 24.65 0 0 0 14.32 32.87l172.86 62.4a24.66 24.66 0 0 0 31.09-13.59l141.25-334.17a24.66 24.66 0 0 0 -13.47-32.47l-169.51-68.48a24.66 24.66 0 0 0 -31.94 13.22z" fill="#4c3ce3"/><path d="m289.25 48.08-135.58 328.83a9 9 0 0 0 5.21 11.87l160.65 59a9 9 0 0 0 11.42-5l132.85-321.06a9 9 0 0 0 -4.52-11.59l-32.7-15.24a9 9 0 0 0 -11 2.76c-.2.15-4.28 7.51-11.79 4.31l-70.44-30a8.94 8.94 0 0 1 -5.35-9.58 9 9 0 0 0 -5.23-9.49l-21.51-9.6a9 9 0 0 0 -12.01 4.79z" fill="#776cff"/><path d="m383.49 103.59-171.26-83a21.62 21.62 0 0 0 -28.23 8.78l-55.64 98.06a21.64 21.64 0 0 0 7.95 29.36l163 94.62a21.59 21.59 0 0 0 29.52-7.81l63.91-109.69a21.6 21.6 0 0 0 -9.25-30.32zm-37.66 80.12a8.07 8.07 0 1 1 8.06-8.08 8.08 8.08 0 0 1 -8.06 8.08z" fill="#5ed4be"/><path d="m281.88 108.3-25 31.39a23.86 23.86 0 0 1 -16.08 8.91c-14.15 1.56-39.4 3.5-49.38-1.26-14.2-6.78-12.26-25.83 4.84-28.1s33.58-5.49 33.58-5.49l18.49-28.16a5 5 0 0 1 6.56-1.67c6.17 3.32 18 10.11 26.37 17.48a5.05 5.05 0 0 1 .62 6.9z" fill="#776cff"/><path d="m273.22 119.17-5.07 6.38c-3-13.13-22.84-2.58-26.54-17.92a5.69 5.69 0 0 0 -4.78-4.51l4.17-6.37a10.92 10.92 0 0 1 6.7 5.21 14 14 0 0 0 14.42 7.45c3.53-.69 9.2 3.75 11.1 9.76z" fill="#fcc836"/><path d="m316.4 125.24-4.31 4.94c-39 44.69-26.65 30.54-29.13 33.38a35.17 35.17 0 0 1 -26.53 12.07h-27.77a16.39 16.39 0 0 1 -3.89-32.32l28.07-6.93c2.15-2.85-9.08 12 28.73-37.95a6.88 6.88 0 0 1 9.18-1.67c6.85 4.33 18.57 12.19 25.4 19.13a6.87 6.87 0 0 1 .25 9.35z" fill="#ff3d81"/><path d="m312.09 130.18-9.58 11c-4-2.56-14.44 1.81-18.77-5.51-5.85-9.86 1-23.14-12.48-23.6l5.29-7c4 .74 8.3 2.72 9.24 7.63 1.83 9.58 4.94 19.25 13.87 17.11 6.2-1.49 10.34-2.16 12.43.37z" fill="#9b377f"/><path d="m50.48 272.63c-9.59-15.63-20.94-43.63-16.79-61.35 3.57-15.22 17.09-23.79 32.83-17 15.29 6.59 42 34.35 57.07 56.58 1.86 2.74-2.29 5.54-4.14 2.8-16.83-24.89-42.74-49.54-54.91-54.78-13.05-5.62-23.18 1.6-26 13.55-3.77 16.16 7.46 43.28 16.2 57.57 1.73 2.84-2.54 5.45-4.26 2.63z" fill="#4c3ce3"/><path d="m317.63 299.55a2.5 2.5 0 0 1 -1.52-4.48c21.17-16.31 53.55-48.32 55.26-77.65.89-15.2-7.71-33.13-23.63-36.81a2.5 2.5 0 0 1 1.13-4.87c18.49 4.28 28.5 24.7 27.49 42-.87 14.89-7.79 29.8-21.8 46.93a216.52 216.52 0 0 1 -35.4 34.33 2.5 2.5 0 0 1 -1.53.55z" fill="#ff5800"/><path d="m332.93 321.94 3.74-32.94a10 10 0 0 0 -8.45-11c-34.62-5.23-34.71-6.08-38.94-3.36l-57.84 37.22a10 10 0 0 0 -2.8 14.12l26.75 38.52a10 10 0 0 0 13.21 3c14.81-8.54 46.34-27.16 60.75-38.9a10 10 0 0 0 3.58-6.66z" fill="#fcc836"/><path d="m261.7 330.37 3.38-2.06a23.22 23.22 0 0 1 -2.25-11.45 2.77 2.77 0 0 1 3.17-2.59c.1.06 3.15.1 3 3.07a17.41 17.41 0 0 0 1.17 7.89l9-5.48q-1.94-6-1.39-9.66c1-6.81 12.73-12.42 20-1.72l2.32-1.42 1.8 3-2.36 1.45a21.79 21.79 0 0 1 2.38 8.56c.27 3.79-5.82 4.05-6.05.31a17.26 17.26 0 0 0 -1.37-5.8l-8.7 5.32c.14.54 2.16 5.72 1.48 10-1.13 7.1-12.83 12.68-20.41 1.53l-3.33 2zm22.68-18.67a11.09 11.09 0 0 0 .41 4.58l8-4.89c-3.24-4.39-7.72-2.69-8.41.31zm-5.67 19c2.68-1.63 2.27-4.2 1.41-7.47l-8.32 5.09c1.76 2.28 4.43 3.86 6.91 2.34z" fill="#fff"/><path d="m19.05 279.68 64.56 213.69s107.81-47.77 164-88.44l-102-177.54z" fill="#ff3d81"/><path d="m110.62 330.13s-19-6.11-28.17 3.33-4 41.86 50 43.8c0 0 18.08-29 11.82-50.37s-24.47-23.7-33.65 3.24z" fill="#fff"/></g></svg>