<svg id="Layer_1" data-name="Layer 1" xmlns="http://www.w3.org/2000/svg" viewBox="0 0 413.1 100"><defs><style>.cls-1{fill:#1f1f1f;}</style></defs><path class="cls-1" d="M276,192H261.15l10.39-73.5,29.3,45.2,29.31-45.2L340.54,192H325.65l-4.5-39.3-20.31,32.8-20.3-32.8Z" transform="translate(-261.15 -113.97)"/><path class="cls-1" d="M364.34,214H351l11.6-26.6L343.54,146h14.4l14.8,36.6-6.4-.2,14.5-36.4h13.5Z" transform="translate(-261.15 -113.97)"/><path class="cls-1" d="M412.24,192h-14.9l10.4-73.5,29.3,45.2,29.3-45.2,10.4,73.5h-14.9l-4.5-39.3L437,185.47l-20.3-32.8Z" transform="translate(-261.15 -113.97)"/><path class="cls-1" d="M487,156.37a23.1,23.1,0,0,1,9.1-8.4,29.88,29.88,0,0,1,26.1,0,23,23,0,0,1,9.1,8.4,25.28,25.28,0,0,1,0,25.15,22.81,22.81,0,0,1-9.1,8.45,29.88,29.88,0,0,1-26.1,0,22.94,22.94,0,0,1-9.1-8.45,25.28,25.28,0,0,1,0-25.15Zm11.5,19.45a12.15,12.15,0,0,0,21.3,0,13.78,13.78,0,0,0,1.65-6.85,14.08,14.08,0,0,0-1.65-6.9,11.6,11.6,0,0,0-4.45-4.6,12.81,12.81,0,0,0-12.4,0,11.67,11.67,0,0,0-4.45,4.6,14.08,14.08,0,0,0-1.65,6.9A13.78,13.78,0,0,0,498.49,175.82Z" transform="translate(-261.15 -113.97)"/><path class="cls-1" d="M544.34,155.92a21.25,21.25,0,0,1,8.2-8.15,22.18,22.18,0,0,1,10.8-2.8,18.35,18.35,0,0,1,10.25,2.9,19.71,19.71,0,0,1,7,8.25,33.53,33.53,0,0,1,0,25.65,19.56,19.56,0,0,1-7,8.3,18.35,18.35,0,0,1-10.25,2.9,22.08,22.08,0,0,1-10.8-2.8,21,21,0,0,1-8.2-8.2,28.91,28.91,0,0,1,0-26.05Zm12,20.15a11.76,11.76,0,0,0,4.6,4.6,12.62,12.62,0,0,0,6.2,1.6,11.27,11.27,0,0,0,5.65-1.55,11.92,11.92,0,0,0,4.5-4.55,15.69,15.69,0,0,0,0-14.4,12,12,0,0,0-4.5-4.55,11.38,11.38,0,0,0-5.65-1.55,12.73,12.73,0,0,0-6.2,1.6,11.83,11.83,0,0,0-4.6,4.6,15.68,15.68,0,0,0,0,14.2ZM592,114v78H579V114Z" transform="translate(-261.15 -113.97)"/><path class="cls-1" d="M614.74,181.12a6.21,6.21,0,0,0,2.75,2.2,9.68,9.68,0,0,0,3.85.75,11.43,11.43,0,0,0,5.4-1.25,10.05,10.05,0,0,0,3.9-3.6,10.26,10.26,0,0,0,1.5-5.65l1.6,6a11.32,11.32,0,0,1-2.45,7.4,14.94,14.94,0,0,1-6.3,4.5,22,22,0,0,1-8,1.5,19,19,0,0,1-8-1.7,14.33,14.33,0,0,1-6-5,13.6,13.6,0,0,1-2.25-7.95,13.07,13.07,0,0,1,4.7-10.6q4.69-3.9,13.3-3.9a30,30,0,0,1,7.75.9,24.67,24.67,0,0,1,5.65,2.2,12.2,12.2,0,0,1,3.3,2.5v6a19.58,19.58,0,0,0-6.05-3,24.72,24.72,0,0,0-7-1,13.53,13.53,0,0,0-4.9.75,5.77,5.77,0,0,0-2.8,2.1,6.56,6.56,0,0,0,.1,6.8Zm-10.8-31a61.11,61.11,0,0,1,8.8-3.65,36.41,36.41,0,0,1,11.6-1.75,30.27,30.27,0,0,1,10.5,1.7,16.18,16.18,0,0,1,7.2,4.95,12.36,12.36,0,0,1,2.6,8V192h-12.5v-29.9a8,8,0,0,0-.6-3.25,5.51,5.51,0,0,0-1.85-2.25,8.26,8.26,0,0,0-3-1.3,17,17,0,0,0-3.8-.4,26.8,26.8,0,0,0-11.1,2.4,24.38,24.38,0,0,0-3.1,1.7Z" transform="translate(-261.15 -113.97)"/><path class="cls-1" d="M660.19,180.32a8.18,8.18,0,0,1,14,5.75,8.24,8.24,0,0,1-14,5.6,7.73,7.73,0,0,1-2.35-5.6A7.82,7.82,0,0,1,660.19,180.32Z" transform="translate(-261.15 -113.97)"/></svg>