<?xml version="1.0" encoding="UTF-8"?>
<!-- Generator: Adobe Illustrator 26.3.1, SVG Export Plug-In . SVG Version: 6.00 Build 0)  -->
<svg xmlns="http://www.w3.org/2000/svg" xmlns:xlink="http://www.w3.org/1999/xlink" version="1.1" id="Capa_1" x="0px" y="0px" viewBox="0 0 512 512" style="enable-background:new 0 0 512 512;" xml:space="preserve" width="512" height="512">
<g>
	<g>
		<path style="fill:#000355;" d="M49.061,401.335c-6.491,0-12.644-0.977-18.445-2.932C8.875,391.077,0.352,372.742,0,371.966    l2.562-1.163c0.081,0.179,8.421,18.037,28.998,24.949c17.698,5.942,38.997,2.298,63.317-10.832l1.336,2.474    C79.027,396.677,63.242,401.335,49.061,401.335z"/>
		<path style="fill:#000355;" d="M49.165,415.566c-31.507,0-48.708-20.453-48.976-20.783l2.182-1.775    c0.102,0.125,10.415,12.546,29.502,17.68c25.288,6.793,54.542-2.239,84.604-26.142l1.752,2.202    C90.707,408.628,67.509,415.566,49.165,415.566z"/>
		<path style="fill:#000355;" d="M353.31,114.075c-33.391-42.936-87.789-18.135-88.335-17.88l-1.195-2.548    c0.567-0.265,56.993-25.986,91.753,18.699L353.31,114.075z"/>
		<path style="fill:#000355;" d="M239.843,93.976l-1.58-2.328c0.622-0.42,62.658-41.625,110.75,0.102l-1.846,2.125    C300.691,53.546,240.444,93.568,239.843,93.976z"/>
	</g>
	<g>
		<path style="fill:#FFEC93;" d="M512,365.755L176.106,374.1l-145.28,3.615c7.035-73.865,99.189-134.362,99.189-134.362    l83.741,26.379l-37.312-75.621c0,0,51.352-71.052,156.17-86.526L512,365.755z"/>
		<path style="fill:#FFD500;" d="M512,365.755l-308.823,73.161c0,0-9.554-36.552-27.071-64.816L512,365.755z"/>
		<g>
			<polygon style="fill:none;" points="278.986,330.277 246.146,372.36 352.904,369.708 366.815,349.663    "/>
			<polygon style="fill:none;" points="206.04,314.176 179.855,356.191 242.939,371.894 275.941,329.605    "/>
			<polygon style="fill:none;" points="168.578,374.287 176.106,374.1 234.347,372.653 178.292,358.7    "/>
			<polygon style="fill:none;" points="263.318,139.119 239.94,183.348 272.506,202.208 298.97,159.745    "/>
			<path style="fill:none;" d="M203.941,165.752c-18.383,15.75-27.496,28.359-27.496,28.359l26.372,53.449l33.371-63.133     L203.941,165.752z"/>
			<path style="fill:none;" d="M48.765,326.458c-9.356,15.818-16.213,33.133-17.939,51.257l55.604-1.384l23.542-34.638     L48.765,326.458z"/>
			<path style="fill:none;" d="M168.559,255.494l-38.543-12.141c0,0-23.72,15.578-48.011,40.567l58.464,12.904L168.559,255.494z"/>
			<polygon style="fill:none;" points="204.704,311.002 271.017,204.597 238.624,185.837 204.828,249.774 203.585,249.117      213.756,269.732 171.362,256.377 143.428,297.477    "/>
			<polygon style="fill:none;" points="114.568,339.94 176.986,355.477 203.126,313.533 141.726,299.981    "/>
			<polygon style="fill:none;" points="356.389,369.621 447.037,367.369 369.785,350.318    "/>
			<polygon style="fill:none;" points="376.176,201.159 387.527,186.613 333.763,109.236 302.896,158.765    "/>
			<path style="fill:none;" d="M138.767,299.328l-59.046-13.032c-10.458,11.004-20.88,23.714-29.436,37.643l61.371,15.276     L138.767,299.328z"/>
			<path style="fill:none;" d="M266.883,126.354c-3.816,1.668-7.509,3.394-11.082,5.165l6.396,3.7L266.883,126.354z"/>
			<polygon style="fill:none;" points="412.057,221.916 389.209,189.034 378.636,202.582    "/>
			<polygon style="fill:none;" points="341.595,245.472 273.453,206.008 207.618,311.645 277.858,327.148    "/>
			<path style="fill:none;" d="M300.459,157.355l30.895-49.573c-22.623,3.45-42.738,9.482-60.36,16.816l-6.359,12.031     L300.459,157.355z"/>
			<polygon style="fill:none;" points="412.772,283.442 433.776,253.176 415.834,227.353 376.888,204.822 345.802,244.657    "/>
			<polygon style="fill:none;" points="371.518,347.821 458.764,367.078 512,365.755 486.891,329.618 413.606,287.176    "/>
			<polygon style="fill:none;" points="374.428,203.399 301.407,161.154 274.942,203.619 343.343,243.232    "/>
			<polygon style="fill:none;" points="368.548,347.165 411.162,285.761 344.054,246.896 280.904,327.82    "/>
			<polygon style="fill:none;" points="112.883,342.418 89.892,376.245 165.211,374.371 175.423,357.986    "/>
			<polygon style="fill:none;" points="483.11,324.177 435.49,255.642 415.215,284.856    "/>
			<polygon style="fill:#FFFFFF;" points="109.972,341.694 86.431,376.331 89.892,376.245 112.883,342.418    "/>
			<path style="fill:#FFFFFF;" d="M413.606,287.176l73.285,42.442l-3.781-5.441l-67.895-39.321l20.275-29.214l-1.714-2.466     l-21.004,30.266l-66.97-38.785l31.086-39.835l38.946,22.531l-3.777-5.437l-33.421-19.334l10.573-13.548l-1.682-2.42     l-11.351,14.545l-73.28-42.394l30.867-49.528l-1.148-1.652c-0.424,0.062-0.839,0.134-1.261,0.198l-30.895,49.573l-35.825-20.726     l6.359-12.031c-1.386,0.577-2.755,1.163-4.111,1.755l-4.686,8.865l-6.396-3.7c-1.011,0.501-2.014,1.005-3.005,1.512l8.085,4.677     l-23.378,44.228l-31.28-18.116c-0.776,0.648-1.537,1.292-2.282,1.931l32.246,18.675l-33.371,63.133l0.768,1.557l1.243,0.657     l33.796-63.936l32.393,18.76l-66.313,106.404l-61.276-13.525l27.934-41.1l-2.803-0.883l-28.09,41.33L82.004,283.92     c-0.761,0.783-1.522,1.575-2.283,2.376l59.046,13.032l-27.11,39.887l-61.371-15.276c-0.513,0.836-1.021,1.675-1.52,2.519     l61.207,15.236l2.911,0.725l62.54,15.567l-10.212,16.385l3.367-0.084l9.714-15.587l56.055,13.953l8.158-0.203l2.426-0.06     l1.215-0.03l32.84-42.083l87.828,19.385l-13.911,20.045l3.485-0.087l13.396-19.303l77.252,17.051l11.727-0.291l-87.246-19.257     L413.606,287.176z M301.407,161.154l73.021,42.244l-31.085,39.834l-68.401-39.614L301.407,161.154z M239.94,183.348     l23.378-44.229l35.652,20.625l-26.464,42.464L239.94,183.348z M273.453,206.008l68.142,39.464l-63.738,81.676l-70.24-15.503     L273.453,206.008z M114.568,339.94l27.158-39.959l61.4,13.552l-26.14,41.944L114.568,339.94z M242.939,371.894l-63.084-15.703     l26.185-42.015l69.901,15.428L242.939,371.894z M280.904,327.82l63.151-80.924l67.108,38.865l-42.614,61.404L280.904,327.82z"/>
		</g>
		<polygon style="fill:#FFD500;" points="176.445,194.111 213.756,269.732 500.04,359.996   "/>
	</g>
</g>















</svg>
