<svg height="512" viewBox="0 0 512 512" width="512" xmlns="http://www.w3.org/2000/svg"><g id="Stickers"><path d="m439.18882 325.30749c-.00787-.11445-7.06955-102.729-7.47048-106.013a111.21079 111.21079 0 1 0 -117.54278-185.61369 109.7022 109.7022 0 0 0 -18.275 20.57121c-8.39117-23.36467-12.152-34.50425-14.75072-42.07869l-267.93879 63.01768c1.68555 6.07465 8.16016 122.24129 99.314 296.0232 39.43939 75.19025 74.87489 123.817 76.364 125.85094l6.54401 8.93486 148.40247-94.75948c24.51116 50.80815 35.63774 72.44095 38.57751 78.368 3.29639-1.44028 62.60342-9.03248 101.13746-66.75468l4.1169-6.16756c-2.41549-4.30355-26.189-42.81444-48.47858-91.37879z" fill="#fff"/><path d="m26.34484 84.23113 247.10271-58.11745s88.87832 259.2265 142.89918 324.81741l-217.93246 139.157s-143.79921-196.33656-172.06943-405.85696z" fill="#eae5db"/><path d="m166.66114 197.27473c-13.01941 27.5152-48.22 34.15863-68.82236 13.31918a44.48594 44.48594 0 0 1 -9.60509-46.58929c8.445-22.98806 33.20791-35.04384 55.31934-26.92726 23.6664 8.68573 34.29528 36.70582 23.10811 60.19737z" fill="#00abfe"/><path d="m166.66114 197.27473c-13.01941 27.5152-48.22 34.15863-68.82236 13.31918.03767-.09783.07154-.20638.10922-.30422 7.912-21.53211 31.1-32.824 51.80974-25.22347a38.565 38.565 0 0 1 16.9034 12.20851z" fill="#7ad001"/><ellipse cx="124.956" cy="163.068" fill="#7ad001" rx="16.728" ry="16.085" transform="matrix(.345 -.939 .939 .345 -71.192 224.152)"/><path d="m252.067 55.313 11.138 26.431-55.823 14.619-11.634-27.292z" fill="#00abfe"/><path d="m177.739 135.478 6.378 14.245 87.143-27.269-6.951-12.137z" fill="#ff605b"/><path d="m140.14746 253.24414a2.50171 2.50171 0 0 1 1.31836-3.28125l108.58398-46.33889a2.50047 2.50047 0 0 1 1.9629 4.59961l-108.584 46.33887a2.50116 2.50116 0 0 1 -3.28124-1.31834z" fill="#b2aca3"/><path d="m163.6377 335.22168a2.5 2.5 0 0 1 1.32617-3.27734c30.97851-13.12207 61.99023-27.32129 92.1748-42.20313a2.4999 2.4999 0 1 1 2.21094 4.48438c-30.27051 14.92382-61.37012 29.16308-92.43457 42.32226a2.499 2.499 0 0 1 -3.27734-1.32617z" fill="#b2aca3"/><path d="m189.509 168.523 5.637 13.621 97.459-34.825-6.232-12.537z" fill="#ffb020"/><path d="m172.988 401.465 34.305 50.592 143.775-82.041-20.338-41.082z" fill="#ff605b"/><path d="m130.848 287.921 5.816 12.036 132.808-53.748-8.535-14.538z" fill="#ffb020"/><path d="m165.422 358.963 5.32 10.703 129.804-58.087-7.235-9.071z" fill="#ffb020"/><g fill="#fff"><circle cx="119.05" cy="261.77" r="7.756"/><circle cx="150.203" cy="341.618" r="7.756"/><path d="m240.38908 415.89234c-5.8884-1.28591-11.78193-2.69368-17.66432-4.16339 1.10222-6.42219 2.295-12.82612 3.60219-19.16833a4.563 4.563 0 0 0 -8.93809-1.84287c-1.27711 6.19785-2.442 12.455-3.52678 18.729-6.1778-1.64148-12.33255-3.354-18.41834-5.17661a4.562 4.562 0 1 0 -2.61816 8.74026c6.45762 1.93465 12.99021 3.75168 19.54852 5.4845-.80926 5.14787-1.57475 10.29819-2.24444 15.43581a4.5626 4.5626 0 1 0 9.0486 1.17986c.62246-4.7747 1.3298-9.56055 2.07479-14.34551 5.72488 1.42315 11.45878 2.79082 17.188 4.0422a4.56264 4.56264 0 0 0 1.948-8.91493z"/><path d="m283.8088 389.46659c-4.22956-.48656-8.44252-1.14065-12.63041-1.93376l6.33631-16.78722a4.56249 4.56249 0 1 0 -8.53708-3.22235l-6.81519 18.056q-7.69641-1.87839-15.20122-4.42694a4.56195 4.56195 0 1 0 -2.95144 8.63333q7.34987 2.513 14.90514 4.39731l-3.9513 10.46862a4.5625 4.5625 0 0 0 8.53709 3.22235l4.40444-11.669q7.38329 1.46436 14.861 2.32631a4.5622 4.5622 0 1 0 1.04263-9.06464z"/><path d="m322.49836 364.0603c-3.76828-.91319-7.57989-1.68647-11.40654-2.39559.78431-4.00455 1.60527-7.99839 2.49785-11.95526a4.56292 4.56292 0 0 0 -8.90245-2.00684c-.93246 4.134-1.78929 8.30717-2.6059 12.49105-4.84678-.68706-9.71093-1.25-14.57966-1.60315a4.56214 4.56214 0 1 0 -.66122 9.10028c4.53577.32928 9.06664.85282 13.58292 1.48463-.67281 3.86976-1.31242 7.74175-1.87785 11.60616a4.56266 4.56266 0 0 0 9.029 1.32245c.559-3.8183 1.19168-7.64461 1.85747-11.46848 3.66245.67882 7.31043 1.41914 10.917 2.29334a4.56267 4.56267 0 0 0 2.14942-8.86859z"/></g><path d="m270.05127 258.10088-91.86221 38.76341a7.7305 7.7305 0 0 0 -3.92275 10.55174l20.79762 42.01619a7.7305 7.7305 0 0 0 9.93364 3.693l112.60818-47.51764z" fill="#ed6c4d"/><path d="m287.72266 250.73488-91.86221 38.76341a7.73049 7.73049 0 0 0 -3.92275 10.55171l20.79762 42.01619a7.7305 7.7305 0 0 0 9.93363 3.693l112.60818-47.51765z" fill="#c6523c"/><path d="m473.73 416.3a144.8664 144.8664 0 0 1 -84.98975 59.6c-18.32033-36.43-35.95025-73.2-53.57033-109.96-12.70019.33-22.7998-9.76-30.29-20.07a158.25522 158.25522 0 0 1 -28.21972-68.83c-.07032-.42-.12989-.84-.19043-1.26-.84961-.99-1.68946-1.99-2.50977-2.99a141.70878 141.70878 0 0 1 -13.37012-18.74c-2.98974-5.1-5.62988-10.63-5.83984-16.54-.18994-5.37 2.06982-11.1 7.27-13.39a13.30723 13.30723 0 0 1 1.6499-.57c.1001-.97.2002-1.94.33008-2.91a22.8957 22.8957 0 0 1 2.7998-9.14c3.14014-5.16 9.02-7.74 15.93018-10.35.77979-.3 1.58008-.6 2.39014-.9a8.81494 8.81494 0 0 1 .62988-2.83 12.345 12.345 0 0 1 4.66016-5.54c2.83984-1.91 6.1997-2.87 9.5-3.76 4.55957-1.22 9.25-2.37 15.06982-.69a23.21473 23.21473 0 0 1 2.37988.82 12.30032 12.30032 0 0 1 1.03028-1.76 18.49216 18.49216 0 0 1 11.1997-7.1c5.08008-1.15 10.37989-.67 15.53028.09a150.00673 150.00673 0 0 1 65.34961 26.42c2.71045 1.94 5.42041 4.04 7.13037 6.9 2.11963 3.56 2.46972 7.87 2.75976 12 2.37012 33.82 4.73 67.63 7.2002 103.46a947.78422 947.78422 0 0 0 46.16992 88.04z" fill="#ffad92"/><path d="m316.48926 294.8457a53.875 53.875 0 0 0 -11.77637-4.24609 2.50025 2.50025 0 0 1 1.13867-4.86914 58.9752 58.9752 0 0 1 12.87012 4.64062 2.50029 2.50029 0 0 1 -2.23242 4.47461z" fill="#ed6c4d"/><path d="m328.568 280.33985-41.64758 21.28015a13.7216 13.7216 0 0 1 -16.68084-3.1573c-6.1504-6.71627-3.79613-17.53867 4.39831-21.53564l4.16116-2.02577a35.75053 35.75053 0 0 0 10.31145.78464c4.41658-.438 9.34423-2.263 11.735-5.986a25.167 25.167 0 0 0 7.61052 2.79215c4.17932.67548 9.43546-.76638 11.78973-4.28859z" fill="#1d1d3d"/><path d="m302.64941 223.42676a2.501 2.501 0 0 0 -2.9873 1.8916 74.66508 74.66508 0 0 1 -4.292 13.19238 2.49983 2.49983 0 1 0 4.58984 1.98242 79.59017 79.59017 0 0 0 4.58106-14.0791 2.50016 2.50016 0 0 0 -1.8916-2.9873z" fill="#ed6c4d"/><path d="m384.68945 230.67969a2.5 2.5 0 0 0 -4.59765-1.96485l-1.86133 4.35486c-9.77168-.90281-17.29321-8.30718-24.01318-15.24585a53.05474 53.05474 0 0 0 1.42236-9.485 2.50016 2.50016 0 0 0 -4.99219-.28516 48.31869 48.31869 0 0 1 -5.97021 20.60236c-8.84965-7.62084-17.83136-13.81173-29.59522-13.54615a59.161 59.161 0 0 1 4.3877-25.48992 2.49052 2.49052 0 0 0 -1.07959-3.13 12.30032 12.30032 0 0 0 -1.03028 1.76 23.21473 23.21473 0 0 0 -2.37988-.82 1.71436 1.71436 0 0 0 -.12988.27 64.21344 64.21344 0 0 0 -4.76416 28.016 21.39034 21.39034 0 0 0 -6.251 2.46857 62.98462 62.98462 0 0 0 -16.53613 2.48645 118.24534 118.24534 0 0 1 .57129-20.491 2.50369 2.50369 0 0 0 -2.12012-2.76 8.81494 8.81494 0 0 0 -.62988 2.83c-.81006.3-1.61035.6-2.39014.9a124.90354 124.90354 0 0 0 -.31152 21.541c-5.27721 3.03814-6.76478 7.796-5.84815 13.93988 2.65737 17.84658 21.47827 11.94365 30.07129 14.45019a97.02065 97.02065 0 0 1 11.3916 15.91065c-1.85449 2.5329-6.06836 3.536-9.17334 3.02826-3.75976-.6-7.25976-2.7-10.64013-4.72-6.62249-4.09441-13.81435-8.10552-18.93946-14.73-4.12011-5.3-6.40039-11.67005-8.81054-18.41-1.17969-3.33-2.40967-6.76-3.87989-10.05a2.50944 2.50944 0 0 0 -2.58982-1.46998c-.12988.97-.23 1.94-.33008 2.91a13.30723 13.30723 0 0 0 -1.6499.57c0 .01.01025.01.01025.02 1.38965 3.12 2.57959 6.47 3.73975 9.7 2.43018 6.81 4.94971 13.86 9.56006 19.8 5.41421 6.9923 13.13844 11.70171 21.56006 16.68531a16.34575 16.34575 0 0 1 -8.03028 2.87469 33.31108 33.31108 0 0 1 -9.60009-.76c-.94971-.18-1.87989-.36-2.83985-.55a2.47118 2.47118 0 0 0 -2.46.9c.82031 1 1.66016 2 2.50977 2.99.06054.42.12011.84.19043 1.26 4.22125.8297 8.39723 1.57022 12.6997 1.13 5.04639-.49377 9.4209-2.44806 12.16993-5.33368 8.231 3.876 14.9884 2.33592 19.01123-1.25634 1.042 2.00933 2.06152 4.10125 3.0664 6.3009-1.8457 18.03125-1.40625 35.43555 1.41406 56.31543a2.50008 2.50008 0 0 0 4.95508-.66992c-5.24911-38.864-.42007-54.6243-1.53418-57.09082-5.33984-11.82227-11.05273-20.82617-18.52343-29.19434a2.50285 2.50285 0 0 0 -1.05957-.70117c-10.426-3.54845-25.308 3.02252-27.34375-10.64649-.96747-6.476 1.41872-9.01472 8.80859-10.86816 11.11412-2.78894 13.89189-1.14755 15.60058-2.25293 6.97071-4.50488 16.22852-2.69629 22.56934.50293 13.70676 6.91514 21.10213 20.38483 49.7041 35.66016a2.49989 2.49989 0 0 0 2.35547-4.41016c-1.646-.87933-3.27148-1.79834-4.88672-2.73535zm-36.17773 1.32416a53.17251 53.17251 0 0 0 4.05273-8.71583c6.79372 6.89288 14.029 13.04125 23.62744 14.55219l-4.84912 11.34631a162.063 162.063 0 0 1 -22.83105-17.18267z" fill="#ed6c4d"/><path d="m387.57179 17.80693a99.40122 99.40122 0 1 0 99.41021 99.39219 99.43792 99.43792 0 0 0 -99.41021-99.39219zm0 17.66655a81.28894 81.28894 0 0 1 47.28691 15.0749l-52.47009 52.47009-47.92561-47.92574a81.36475 81.36475 0 0 1 53.10879-19.61925zm-81.72564 81.72564a81.44891 81.44891 0 0 1 15.05663-47.28724l47.30529 47.30529-47.287 47.26875a81.29067 81.29067 0 0 1 -15.07492-47.2868zm81.72564 81.72542a81.25687 81.25687 0 0 1 -53.09066-19.61925l47.90748-47.90747 52.47009 52.47009a81.40438 81.40438 0 0 1 -47.28691 15.05663zm62.10639-28.63509-53.09066-53.07228 53.10882-53.10882a81.671 81.671 0 0 1 -.01816 106.1811z" fill="#ff605b"/></g></svg>