<?xml version="1.0" encoding="UTF-8"?>
<!-- Generator: Adobe Illustrator 26.0.3, SVG Export Plug-In . SVG Version: 6.00 Build 0)  -->
<svg xmlns="http://www.w3.org/2000/svg" xmlns:xlink="http://www.w3.org/1999/xlink" version="1.1" id="Capa_1" x="0px" y="0px" viewBox="0 0 512 512" style="enable-background:new 0 0 512 512;" xml:space="preserve" width="512" height="512">
<g>
	<g>
		<g>
			<path style="fill:#FF9EBB;" d="M321.92,95.219l-42.172-39.547l-66.218-1.705l-18.189,102.155l8.646,16.923l40.805,23.873     l87.25-14.619l15.957-21.578C342.02,140.282,330.426,113.637,321.92,95.219z"/>
		</g>
		<g>
			<g>
				<path style="fill:#FF9EBB;" d="M511.985,148.743c-1.103,5.964-56.172,13.386-56.172,13.386s52.969,3.958,50.79,10.517      c-2.159,6.563-51.732-4.866-51.732-4.866s43.856,24.249,38.959,28.664c-4.901,4.427-40.773-23.219-40.773-23.219l-141.489,69.45      l0.274-10.005l122.651-73.443c0,0-16.344-20.32-9.617-23.81c6.022-3.121,12.926,21.45,12.926,21.45s1.889-0.225,4.164,0.098      c12.587-10.909,44.053-37.597,48.02-34.821c4.885,3.393-35.25,32.967-36.42,33.842      C455.043,155.662,513.074,142.858,511.985,148.743z"/>
			</g>
			<g>
				<path style="fill:#002855;" d="M451.129,168.931c-2.269-12.249-12.806-11.384-13.261-11.344l-0.134-1.443      c0.114-0.009,12.313-1.023,14.817,12.523L451.129,168.931z"/>
			</g>
		</g>
		<g>
			<g>
				<path style="fill:#FF9EBB;" d="M219.838,258.155L63.721,236.399c0,0-25.422,37.458-31.469,34.806      c-6.033-2.666,28.05-39.401,28.05-39.401s-43.508,26.352-47.629,20.787c-4.105-5.56,44.961-25.867,44.961-25.867      s-54.619,10.147-57.533,4.831c-2.917-5.315,57.776-11.367,57.776-11.367s-48.83-15.942-45.205-20.765      c2.887-3.863,41.118,11.622,56.506,18.064c2.058-1.016,3.93-1.398,3.93-1.398s-1.119-25.493,5.559-24.414      c7.491,1.219-1.686,25.623-1.686,25.623l139.464,31.428L219.838,258.155z"/>
			</g>
			<g>
				<path style="fill:#002855;" d="M65.344,229.214c-1.405-3.666-1.389-6.767,0.069-9.21c2.318-3.889,7.387-4.604,7.602-4.631      l0.187,1.439c-0.045,0.004-4.598,0.653-6.544,3.943c-1.211,2.039-1.198,4.712,0.039,7.944L65.344,229.214z"/>
			</g>
		</g>
		<g>
			<path style="fill:#FF8200;" d="M270.086,251.295L85.167,215.373l-6.82,27.301h12.128c0,0-1.558,34.388,143.971,24.534     l3.81,122.795l107.615-22.757c0,0-8.259-77.3-37.228-109.887c0,0,80.808-2.655,123.246-70.103l13.251-4.947l-17.421-23.85     L270.086,251.295z"/>
		</g>
		<g>
			<path style="fill:#FF9EBB;" d="M282.772,253.28l-5.35,34.941l-27.686-29.211l-6.934-49.019l36.877-9.095v47.359     C279.679,248.255,280.885,250.027,282.772,253.28z"/>
		</g>
		<g>
			<path style="fill:#FFFFFF;" d="M304.574,380.167l-36.511,8.186L249.736,259.01c7.934,3.478,21.327,6.388,33.036-5.73     C292.162,269.378,318.739,321.921,304.574,380.167z"/>
		</g>
		<g>
			<path style="fill:#002855;" d="M347.999,160.722c2.547,8.686,4.07,16.235,3.934,21.578c-0.703,26.781-42.81,48.154-93.966,50.814     c-51.155,2.638-63.318-19.325-56.294-74.664l-28.602-5.001c0,0,3.412-99.196,67.071-135.187l-4.547,16.28     c0,0,52.679-33.332,121.637-10.596l-23.874,12.505c0,0,31.468,4.547,34.106,45.836l-34.106-8.322l17.055,21.212     c0,0-12.233,0.751-28.492,0.044c-25.485-1.09-60.795-5.75-74.186-22.393l4.913,15.142l-21.963-14.006     c0,0-25.009,35.991-20.098,90.171c0,0,46.608-10.276,70.866,18.166C281.452,182.299,313.032,160.631,347.999,160.722z"/>
		</g>
		<g>
			<path style="fill:#FF9EBB;" d="M197.522,143.641c0,0,0.963,12.126,3.236,12.126c2.275,0,2.825-7.957,2.825-7.957l5.51,27.66     c0,0-34.368,14.041-45.472-9.472C150.738,138.713,176.854,129.999,197.522,143.641z"/>
		</g>
		<g>
			<path style="fill:#FF9EBB;" d="M273.309,200.896c0,13.655-11.197,24.725-25.011,24.725c-13.812,0-25.007-11.07-25.007-24.725     c0-13.655,11.195-24.725,25.007-24.725C262.112,176.171,273.309,187.242,273.309,200.896z"/>
		</g>
		<g>
			<g>
				<path style="fill:#002855;" d="M251.217,215.129c-6.737,2.822-17.86,6.121-16.862-6.843c1.294-16.928,12.82-27.48,12.82-27.48      s-0.477,14.332,13.481,12.152L251.217,215.129z"/>
			</g>
			<g>
				<path style="fill:#002855;" d="M240.517,217.72c-1.454-0.145-2.787-0.537-3.892-1.264c-2.315-1.534-3.337-4.298-3.034-8.228      c1.31-17.032,12.585-27.545,13.066-27.987l1.336-1.225l-0.057,1.812c-0.006,0.068-0.156,6.707,4.137,9.882      c2.931,2.163,7.281,2.278,12.936,0.356l0.494,1.446c-6.162,2.098-10.988,1.902-14.34-0.58c-3.473-2.571-4.418-6.888-4.665-9.334      c-2.945,3.219-10.369,12.566-11.384,25.749c-0.26,3.331,0.534,5.629,2.356,6.831c5.758,3.813,19.826-3.431,19.964-3.503      l0.703,1.352C257.639,213.286,247.62,218.437,240.517,217.72z"/>
			</g>
			<g>
				<path style="fill:#002855;" d="M251.133,181.59c0,0-4.385-2.85-12.193-0.443c0,0,8.151-5.277,13.797-0.899L251.133,181.59z"/>
			</g>
			<g>
				<path style="fill:#FFFFFF;" d="M246.498,182.597c0,0,1.31,12.42,12.203,11.332l-3.006,6.515l-14.614-10.48L246.498,182.597z"/>
			</g>
			<g>
				<path style="fill:#FF4E8C;" d="M235.833,203.316c0,0-3.358,16.43,11.691,12.147      C247.524,215.463,246.423,198.326,235.833,203.316z"/>
			</g>
		</g>
		<g>
			<path style="fill:#002855;" d="M165.624,166.655c0,0,2.5-10.359,14.803-10.529c12.306-0.168,21.438,5.467,20.163,11.792     c-1.28,6.321-22.765,9.015-17.336-1.811l-6.607,0.23l8.977-1.556c0,0-5.695,6.914,3.579,7.593     c9.266,0.671,13.007-6.588,7.434-10.692C191.053,157.59,175.387,152.751,165.624,166.655z"/>
		</g>
		<g>
			<path style="fill:#002855;" d="M300.437,150.883c-0.13-6.861,3.227-24.179,13.694-19.548c6.028,2.666,7.7,12.442,8.59,18.158     c0.152,0.986,3.465,0.226,3.296-0.883c-1.259-8.078-4.298-20.319-14.638-19.683c-10.913,0.673-14.407,13.826-14.236,22.84     C297.159,152.66,300.461,152.059,300.437,150.883L300.437,150.883z"/>
		</g>
		<g>
			
				<rect x="241.697" y="116.257" transform="matrix(0.9371 -0.349 0.349 0.9371 -26.2542 98.1563)" style="fill:#002855;" width="35.177" height="11.368"/>
		</g>
		<g>
			
				<rect x="301.206" y="94.074" transform="matrix(0.2144 -0.9767 0.9767 0.2144 131.7257 387.7141)" style="fill:#002855;" width="11.368" height="35.788"/>
		</g>
		<g>
			<g>
				<path style="fill:#FF9EBB;" d="M285.998,119.9l15.014,57.841c0,0-34.624,14.63-35.477-6.117c0,0,4.548-5.968,11.37,0.569      L285.998,119.9z"/>
			</g>
			<g>
				<path style="fill:#002855;" d="M279.191,183.885c-3.607,0-7.014-0.621-9.656-2.296c-3.221-2.039-4.946-5.378-5.133-9.918      l-0.016-0.411l0.248-0.324c0.083-0.109,2.058-2.656,5.427-2.917c2.553-0.191,5.104,0.93,7.631,3.352l-1.572,1.643      c-2.033-1.946-4.022-2.872-5.856-2.73c-1.775,0.129-3.047,1.216-3.565,1.747c0.24,3.563,1.57,6.063,4.056,7.639      c7.913,5.02,24.806-1.025,28.907-2.612l-14.764-56.873l2.204-0.568l15.26,58.788l-0.906,0.381      C300.802,179.066,289.237,183.885,279.191,183.885z"/>
			</g>
		</g>
		<g>
			<path style="fill:#002855;" d="M256.975,154.39c-0.13-6.731,3.664-25.42,14.279-19.221c5.545,3.239,7.105,12.056,8.001,17.831     c0.144,0.916,3.457,0.167,3.295-0.883c-1.257-8.091-4.284-20.275-14.624-19.64c-10.915,0.67-14.419,13.774-14.248,22.798     C253.695,156.093,256.995,155.514,256.975,154.39L256.975,154.39z"/>
		</g>
	</g>
	<g>
		<g>
			<path style="fill:#FFD000;" d="M111.545,328.244c0,0,143.579-32.386,144.302-31.906c0.725,0.493,27.314,67.204,23.447,160.026     l-112.635,10.629l-47.138-9.914L111.545,328.244z"/>
		</g>
		<g>
			<path style="fill:#002855;" d="M168.902,334.123c0.203,16.814,11.328,38.766,24.67,49.055c8.256,6.365,20.01,7.22,28.159,0.469     c8.421-6.983,10.564-20.305,11.772-30.447c1.31-11.01,1.271-22.5-0.215-33.495c-0.193-1.468-4.418-0.49-4.196,1.126     c2.397,17.808,2.578,40.287-6.296,56.429c-6.993,12.735-20.547,9.26-29.634,0.542c-10.72-10.289-19.88-29.921-20.057-44.804     C173.09,331.628,168.88,332.462,168.902,334.123L168.902,334.123z"/>
		</g>
		<g>
			
				<rect x="152.212" y="329.538" transform="matrix(0.9803 -0.1976 0.1976 0.9803 -75.8209 38.089)" style="fill:#002855;" width="1.451" height="138.828"/>
		</g>
		<g>
			<path style="fill:#002855;" d="M128.478,331.856c-12.778,0-16.966-2.74-17.358-3.023l0.847-1.181l-0.422,0.591l0.416-0.591     c0.232,0.16,24.851,15.715,142.718-31.244l0.536,1.348C184.428,325.961,147.216,331.856,128.478,331.856z"/>
		</g>
		<g style="opacity:0.2;">
			<path style="fill:#FFFFFF;" d="M142.363,457.983c0.729,0.239,9.666-57.257-18.122-124.42"/>
		</g>
	</g>
	<g>
		<g>
			<polygon style="fill:#008CFA;" points="251.735,385.048 290.167,296.334 394.355,318.577 398.702,454.422 320.386,483.671      245.692,453.943    "/>
		</g>
		<g>
			<path style="fill:#002855;" d="M303.768,312.986c-5.403,17.393-8.194,37.318,0.055,54.282     c4.318,8.899,12.201,15.608,22.204,11.809c9.888-3.739,16.241-15.922,20.736-24.683c4.791-9.356,9.057-19.657,11.269-29.979     c0.396-1.854-3.878-1.234-4.229,0.418c-3.613,16.864-12.032,37.456-24.979,49.206c-11.486,10.412-20.819-5.904-23.862-15.637     c-4.6-14.717-1.424-31.499,3.038-45.838C308.535,310.836,304.269,311.368,303.768,312.986L303.768,312.986z"/>
		</g>
		<g>
			
				<rect x="276.49" y="398.073" transform="matrix(0.2313 -0.9729 0.9729 0.2313 -113.8231 653.5378)" style="fill:#002855;" width="160.33" height="1.449"/>
		</g>
		<g>
			<path style="fill:#002855;" d="M380.314,321.809c-31.728,0-87.651-23.628-90.431-24.81l0.571-1.335     c0.794,0.34,80.012,33.817,103.583,22.259l0.632,1.308C390.978,321.04,386.034,321.809,380.314,321.809z"/>
		</g>
		<g style="opacity:0.2;">
			<path style="fill:#FFFFFF;" d="M373.085,460.71c0,0-9.668-73.993,13.284-136.807"/>
		</g>
	</g>
	<g>
		<g>
			<polygon style="fill:#008CFA;" points="68.752,404.95 73.202,464.063 173.07,487.936 223.291,476.999 233.54,398.797    "/>
		</g>
		<g>
			<polygon style="fill:#002855;" points="64.306,401.351 235.514,395.773 235.514,408.858 64.306,413.855    "/>
		</g>
		<g>
			
				<rect x="167.96" y="404.625" transform="matrix(0.9955 -0.0952 0.0952 0.9955 -41.7135 18.1188)" style="fill:#002855;" width="2.275" height="83.5"/>
		</g>
	</g>
	<g>
		<g>
			<polygon style="fill:#76D7F7;" points="312.528,395.198 479.256,392.308 474.71,454.023 375.722,486.23 314.801,470.694    "/>
		</g>
		<g>
			<polygon style="fill:#FF8200;" points="308.65,392.308 483.424,390.003 481.149,404.815 308.65,403.245    "/>
		</g>
		<g>
			
				<rect x="333.275" y="437.62" transform="matrix(0.1116 -0.9938 0.9938 0.1116 -97.4955 768.4578)" style="fill:#002855;" width="95.542" height="2.276"/>
		</g>
	</g>
	<g>
		<g>
			<polygon style="fill:#FF4E8C;" points="181.879,428.561 184.058,495.994 354.227,493.585 350.357,425.416    "/>
		</g>
		<g>
			<polygon style="fill:#002855;" points="247.693,495.104 246.728,459.936 248.182,459.898 249.137,495.063    "/>
		</g>
		<g>
			<polygon style="fill:#FF9EBB;" points="178.017,421.068 299.839,395.198 354.227,421.068 354.227,439.436 243.762,466.992      178.017,442.82    "/>
		</g>
		<g>
			<polygon style="fill:#002855;" points="243.533,451.743 179.035,423.374 179.616,422.047 243.645,450.212 353.428,420.077      353.808,421.483    "/>
		</g>
		<g>
			<polygon style="fill:#002855;" points="243.035,467.002 242.863,450.988 244.315,450.968 244.484,466.981    "/>
		</g>
	</g>
</g>















</svg>
