<?xml version="1.0" encoding="UTF-8"?>
<!-- Generator: Adobe Illustrator 26.0.3, SVG Export Plug-In . SVG Version: 6.00 Build 0)  -->
<svg xmlns="http://www.w3.org/2000/svg" xmlns:xlink="http://www.w3.org/1999/xlink" version="1.1" id="Capa_1" x="0px" y="0px" viewBox="0 0 512 512" style="enable-background:new 0 0 512 512;" xml:space="preserve" width="512" height="512">
<g>
	
		<ellipse transform="matrix(0.9999 -0.0107 0.0107 0.9999 -2.7175 2.7467)" style="fill:#F1854F;" cx="256.001" cy="256" rx="256.001" ry="255.997"/>
	<g>
		<path style="fill-rule:evenodd;clip-rule:evenodd;fill:#FFFFFF;" d="M212.204,305.988c-8.727,7.553-19.258,13.342-31.176,16.636    c-42.647,11.773-86.918-12.871-98.864-55.057c-11.953-42.192,12.927-85.943,55.574-97.715c11.697-3.231,23.514-3.723,34.753-1.865    L212.204,305.988z"/>
		<path style="fill-rule:evenodd;clip-rule:evenodd;fill:#074785;" d="M172.454,167.988c-22.899,9.093-40.694,29.454-45.203,55.302    c-6.881,39.379,19.669,76.605,59.304,83.136c8.664,1.42,17.254,1.265,25.441-0.278c22.638-19.462,33.244-50.769,24.606-81.249    C227.922,194.263,202.216,172.903,172.454,167.988z"/>
	</g>
	<g>
		<path style="fill-rule:evenodd;clip-rule:evenodd;fill:#FFFFFF;" d="M402.094,300.047c-9.181,7.232-19.589,12.152-31.821,14.855    c-43.208,9.542-86.134-17.359-95.874-60.117c-9.755-42.747,17.366-85.138,60.569-94.703c12.328-2.724,23.258-2.794,34.776-0.062    L402.094,300.047z"/>
		<path style="fill-rule:evenodd;clip-rule:evenodd;fill:#074785;" d="M369.731,160.038c-23.336,7.9-42.16,27.296-48.012,52.872    c-8.92,38.974,15.652,77.527,54.906,86.098c8.583,1.886,17.167,2.158,25.423,1.06c23.624-18.269,35.838-48.977,28.798-79.879    C423.766,189.153,399.186,166.49,369.731,160.038z"/>
	</g>
	<path style="fill:#FFA4AC;" d="M171.188,356.073c0.005,12.449-14.353,22.552-32.08,22.563   c-17.728,0.028-32.107-10.053-32.122-22.513c0-12.455,14.353-22.558,32.089-22.575   C156.792,333.538,171.181,343.618,171.188,356.073z"/>
	<path style="fill:#FFA4AC;" d="M425.866,344.55c0.01,12.461-14.35,22.558-32.068,22.563c-17.735,0.022-32.108-10.053-32.126-22.508   c-0.006-12.455,14.352-22.563,32.082-22.569C411.475,322.02,425.857,332.101,425.866,344.55z"/>
	<g>
		<path style="fill:#FFFFFF;" d="M217.506,209.88c-6.82-9.431-15.101-17.154-26.178-21.204c-4.975-1.831-7.244,6.064-2.318,7.873    c8.902,3.262,15.86,9.775,21.341,17.36C213.403,218.135,220.599,214.174,217.506,209.88z"/>
		<path style="fill:#FFFFFF;" d="M178.29,183.527c-1.277-0.277-2.544-0.599-3.819-0.877c-2.186-0.488-4.431,0.522-5.101,2.78    c-0.592,2.03,0.598,4.605,2.781,5.087c1.276,0.288,2.547,0.61,3.82,0.882c2.189,0.488,4.431-0.522,5.101-2.779    C181.668,186.59,180.465,184.016,178.29,183.527z"/>
		<g>
			<path style="fill:#FFFFFF;" d="M223.281,224.205c-0.917-2.042-3.778-2.597-5.587-1.57c-2.072,1.171-2.481,3.54-1.57,5.581     c-0.005-0.056-0.003-0.078-0.005-0.139c0.083,2.23,1.703,4.128,4.029,4.161c2.143,0.044,4.259-1.786,4.173-4.028     C224.262,226.729,223.883,225.547,223.281,224.205z"/>
			<path style="fill:#FFFFFF;" d="M216.091,228.199c0.015,0.061,0.028,0.133,0.039,0.194c0-0.05-0.003-0.117-0.011-0.178     C215.645,227.145,216.008,227.927,216.091,228.199z"/>
			<path style="fill:#FFFFFF;" d="M216.13,228.394C216.16,228.998,216.184,228.704,216.13,228.394L216.13,228.394z"/>
			<path style="fill:#FFFFFF;" d="M216.124,228.227v-0.011h-0.005C216.124,228.227,216.124,228.227,216.124,228.227z"/>
		</g>
	</g>
	<g>
		<path style="fill:#FFFFFF;" d="M407.685,196.182c-6.826-9.437-15.106-17.154-26.177-21.21c-4.979-1.82-7.251,6.069-2.323,7.873    c8.896,3.262,15.86,9.781,21.34,17.365C403.579,204.432,410.778,200.476,407.685,196.182z"/>
		<path style="fill:#FFFFFF;" d="M368.465,169.835c-1.275-0.283-2.544-0.605-3.816-0.888c-2.183-0.477-4.437,0.522-5.108,2.779    c-0.585,2.036,0.605,4.616,2.788,5.093c1.275,0.289,2.541,0.61,3.818,0.882c2.188,0.494,4.433-0.522,5.1-2.78    C371.839,172.892,370.642,170.312,368.465,169.835z"/>
		<g>
			<path style="fill:#FFFFFF;" d="M413.453,210.501c-0.911-2.041-3.771-2.585-5.584-1.564c-2.071,1.165-2.481,3.545-1.573,5.575     c-0.003-0.044,0-0.078-0.003-0.133c0.086,2.225,1.698,4.128,4.029,4.166c2.141,0.039,4.257-1.797,4.176-4.034     C414.432,213.031,414.063,211.849,413.453,210.501z"/>
			<path style="fill:#FFFFFF;" d="M406.268,214.507c0.015,0.055,0.028,0.122,0.041,0.189c0.004-0.05-0.014-0.122-0.014-0.183     C405.819,213.442,406.182,214.23,406.268,214.507z"/>
			<path style="fill:#FFFFFF;" d="M406.31,214.696C406.337,215.295,406.358,215.006,406.31,214.696L406.31,214.696z"/>
			<path style="fill:#FFFFFF;" d="M406.301,214.524l-0.006-0.011l0,0C406.301,214.524,406.301,214.524,406.301,214.524z"/>
		</g>
	</g>
	<path style="fill:#074785;" d="M300.2,338.37c3.444,15.418-6.201,30.696-21.551,34.125c-15.345,3.429-30.581-6.291-34.022-21.709   c-3.445-15.423,6.204-30.702,21.547-34.136C281.523,313.227,296.755,322.947,300.2,338.37z"/>
	<path style="fill:#074785;" d="M112.24,148.82c-5.304-0.061-9.798-4.228-11.193-10.38c-1.644-7.279,1.337-14.23,7.25-16.91   c17.337-7.856,36.285-11.834,56.311-11.834h0.625c7.065,0.078,12.268,5.964,12.346,13.992c0.044,4.205-1.337,7.934-3.889,10.513   c-2.148,2.175-4.924,3.323-8.024,3.323h-0.596c-17.112,0-32.848,3.357-48.103,10.269c-1.513,0.682-3.065,1.032-4.602,1.032   L112.24,148.82z"/>
	<path style="fill:#074785;" d="M408.767,144.82c-1.793,0-3.546-0.444-5.209-1.304c-15.365-7.994-31.055-12.294-47.96-13.143   c-1.701-0.095-3.273-0.516-4.67-1.254c-4.691-2.48-6.775-8.25-5.194-14.352c1.814-7.018,7.264-11.728,13.558-11.728   c0.208,0,0.417,0.006,0.623,0.011c19.216,0.971,38.069,6.203,56.035,15.551c6.251,3.307,8.183,10.918,4.571,18.092   C418.009,141.707,413.505,144.82,408.767,144.82z"/>
	<g>
		<path style="fill:#FFFFFF;" d="M272.868,23.287c-41.209-11.29-87.046-1.132-123.158,20.516    c-13.325,7.983-1.202,28.844,12.175,20.827c30.785-18.452,69.662-27.645,104.57-18.081    C281.484,50.666,287.855,27.393,272.868,23.287z"/>
		<path style="fill:#FFFFFF;" d="M309.225,39.26c-15.556,0-15.556,24.128,0,24.128C324.783,63.387,324.783,39.26,309.225,39.26z"/>
		<path style="fill:#FFFFFF;" d="M120.094,62.422c-15.556,0-15.556,24.122,0,24.122C135.652,86.545,135.652,62.422,120.094,62.422z"/>
		<path style="fill:#FFFFFF;" d="M359.13,455.126c-3.165-5.404-11.035-7.995-16.503-4.328    c-25.708,17.26-61.764,22.475-91.059,15.512c-15.126-3.595-21.545,19.667-6.413,23.262c35.858,8.516,78.758,2.791,109.649-17.942    C360.251,467.974,362.609,461.067,359.13,455.126z"/>
		<path style="fill:#FFFFFF;" d="M380.237,427.924c-15.555,0-15.555,24.122,0,24.122    C395.794,452.046,395.794,427.924,380.237,427.924z"/>
		<path style="fill:#FFFFFF;" d="M207.189,454.299c-15.556,0-15.556,24.122,0,24.122S222.746,454.299,207.189,454.299z"/>
		<path style="fill:#FFA4AC;" d="M497.978,244.122c-0.033-15.556-24.16-15.556-24.125,0c0.042,19.678,1.814,40.311-7.04,58.564    c-2.868,5.919-1.667,12.993,4.33,16.505c5.337,3.129,13.635,1.587,16.501-4.327C498.598,292.272,498.026,268.605,497.978,244.122z    "/>
	</g>
	<path style="fill:#074785;" d="M357.152,388.989c-1.003-1.06-3.008-15.923-4.833-15.8c-1.83,0.116-3.425,14.857-4.276,15.828   c-1.716,1.942-14.253,3.318-14.148,5.215c0.104,1.886,12.415,2.774,14.151,4.61c0.974,1.032,3.011,15.928,4.839,15.812   c1.829-0.111,3.39-14.807,4.278-15.812c1.659-1.886,14.29-3.334,14.186-5.232C371.247,391.718,358.829,390.764,357.152,388.989z"/>
	<path style="fill:#FFFFFF;" d="M205.569,394.437c-1.002-1.06-3.011-15.922-4.837-15.8c-1.829,0.122-3.421,14.857-4.274,15.834   c-1.716,1.947-14.254,3.323-14.15,5.215c0.107,1.881,12.415,2.768,14.154,4.61c0.971,1.027,3.013,15.928,4.837,15.812   c1.831-0.117,3.392-14.813,4.282-15.817c1.656-1.881,14.286-3.334,14.186-5.226C219.664,397.167,207.243,396.218,205.569,394.437z"/>
	<path style="fill:#FFFFFF;" d="M285.943,127.799c-0.999-1.06-3.011-15.917-4.834-15.8c-1.829,0.122-3.42,14.857-4.274,15.828   c-1.716,1.947-14.254,3.329-14.15,5.215c0.104,1.892,12.416,2.779,14.156,4.616c0.971,1.032,3.011,15.928,4.835,15.812   c1.831-0.116,3.391-14.813,4.28-15.817c1.655-1.881,14.286-3.335,14.184-5.226C300.039,130.528,287.62,129.58,285.943,127.799z"/>
	<path style="fill:#FFFFFF;" d="M49.412,271.8c-1.002-1.06-3.01-15.923-4.835-15.8c-1.831,0.122-3.424,14.863-4.276,15.834   c-1.713,1.947-14.251,3.323-14.149,5.215c0.103,1.881,12.415,2.774,14.154,4.61c0.971,1.026,3.008,15.934,4.836,15.812   c1.83-0.116,3.393-14.813,4.28-15.817c1.656-1.886,14.287-3.335,14.186-5.226C63.508,274.53,51.088,273.581,49.412,271.8z"/>
</g>















</svg>
