<?xml version="1.0" encoding="UTF-8"?>
<svg xmlns="http://www.w3.org/2000/svg" viewBox="0 0 512 512" width="512" height="512"><defs><style>.cls-1{fill:#fff;}.cls-2{fill:#eae5db;}.cls-3{fill:#ffb020;}.cls-4{fill:#ff605b;}.cls-5{fill:#a369f7;}.cls-6{fill:#b2aca3;}.cls-7{fill:#00abfe;}.cls-8{fill:#c72f55;}.cls-9{fill:#ffad92;}.cls-10{fill:#7ad001;}.cls-11{fill:#ed6c4d;}</style></defs><g id="Stickers"><path class="cls-1" d="M338.109,289.944c3.021-.552,90.813,1.683,164.326-58.473-9.647-16.32-20.208-34.614-30.259-54.272-10.352-20.246-2.047-56.573-15.131-104.362C447.6,38.353,422.223,14.424,393.552,6c-.1.033-77.419,13.041-136.5,43.39L241.98,57.153c19.855,14.092,38,26.52,49.563,56.763a81.934,81.934,0,0,0-108.532,47.235L75.261,145.926,74.1,156.45C56.436,316.961,10.465,360.309,9.565,363.178c72.066,35.04,128.2,32.356,195.63,19.892,5.13-13.164,10.353-28.4,16.075-54.313a30.445,30.445,0,0,0,7.781,11.075,46.448,46.448,0,0,0-1,10.148c.072,6.535,1.863,11.609,6.612,16.212-.249,12.211,4.114,20.354,10.384,25.153-.44,15.6,8.826,21.835,20.617,24.259,2.176,1.3,4.414,2.532,6.693,3.676a24.74,24.74,0,0,0,30.863,9.889,102.671,102.671,0,0,0,35.39-.543c49.039,38.034,88.161,73.1,93.164,77.374,6.116-9.581,37.166-37.327,32.585-94.447A677.855,677.855,0,0,1,368.9,350.517l-.638-.617c-21.629-20.935-35.9-46.754-68.879-52.8l-2.669-15.214a17.489,17.489,0,0,0-9.529-12.708l-.282-2.018a81.679,81.679,0,0,0,27.916-16.478C322.258,270.948,330.348,281.678,338.109,289.944Z"/><path class="cls-2" d="M261.739,58.521s55.246-28.379,131.3-42c0,0,41.128,11.619,54.108,59.027s3.935,82.94,15.892,106.323,26.108,47.3,26.108,47.3-55.968,46.511-146.81,50.324c0,0-23.346-24.489-27.622-78.7s-5.94-76.545-18.54-101.783S261.739,58.521,261.739,58.521Z"/><path class="cls-3" d="M352.871,75.787a28.215,28.215,0,0,1-1.143,3.914,31.459,31.459,0,0,1-11.9,15.172,33.471,33.471,0,0,1-22.568,5.317,22.651,22.651,0,0,1-7-1.887,15.483,15.483,0,0,1-2.581-1.507,19.377,19.377,0,0,1-5.715-7.153c-6.374-12.9-1.247-30.31,11.119-37.706,5.837-3.481,12.713-3.724,19.121-2.892,7.569.97,15.259,4.642,18.914,11.344C353.65,65.014,353.979,70.625,352.871,75.787Z"/><path class="cls-4" d="M351.728,79.7a31.459,31.459,0,0,1-11.9,15.172,33.471,33.471,0,0,1-22.568,5.317,22.651,22.651,0,0,1-7-1.887,59.672,59.672,0,0,1,3.88-11c2.407-4.918,6.027-9.439,10.929-11.916a22.646,22.646,0,0,1,17.129-.9A31.244,31.244,0,0,1,351.728,79.7Z"/><path class="cls-4" d="M322.931,56.85a5.164,5.164,0,0,0-6.3.936,7.624,7.624,0,0,0-1.8,6.41,8.349,8.349,0,0,0,1.453,3.694,7.4,7.4,0,0,0,8.467,2.412,7.586,7.586,0,0,0,4.586-7.555A6.35,6.35,0,0,0,322.931,56.85Z"/><polygon class="cls-5" points="352.605 46.923 358.392 55.676 401.59 42.323 392.396 33.643 352.605 46.923"/><polygon class="cls-6" points="366.641 70.692 371.556 79.064 416.32 65.096 409.743 57.557 366.641 70.692"/><path class="cls-1" d="M321.534,128.4a2.5,2.5,0,0,1,1.9-2.982,330.984,330.984,0,0,0,38.595-11.06,2.5,2.5,0,0,1,1.667,4.714,336.066,336.066,0,0,1-39.18,11.228A2.5,2.5,0,0,1,321.534,128.4Z"/><path class="cls-6" d="M326.254,152.639a2.5,2.5,0,0,1,1.956-2.945A847.434,847.434,0,0,0,434.058,121.1a2.5,2.5,0,0,1,1.614,4.732A852.622,852.622,0,0,1,329.2,154.6,2.5,2.5,0,0,1,326.254,152.639Z"/><path class="cls-1" d="M335.861,209.448a2.5,2.5,0,0,1,1.936-2.959,516.75,516.75,0,0,0,51.955-13.729,2.5,2.5,0,0,1,1.528,4.761,521.887,521.887,0,0,1-52.46,13.863A2.5,2.5,0,0,1,335.861,209.448Z"/><path class="cls-6" d="M340.414,234.708a2.5,2.5,0,0,1,1.921-2.968A744.692,744.692,0,0,0,449,200.412a2.5,2.5,0,1,1,1.765,4.678,749.581,749.581,0,0,1-107.38,31.539A2.5,2.5,0,0,1,340.414,234.708Z"/><path class="cls-2" d="M84.308,157.571S68.647,300.083,25.091,359.382c0,0,77.043,37.946,172.51,14.958,0,0,32.82-83.314,24.253-197.334Z"/><polygon class="cls-7" points="158.401 189.992 156.09 205.206 204.555 213.006 206.886 198.726 158.401 189.992"/><polygon class="cls-6" points="153.568 217.407 151.32 225.937 198.872 234.692 201.502 227.159 153.568 217.407"/><path class="cls-1" d="M136.188,248.547l-46.4-8.859a2.5,2.5,0,1,1,.938-4.911l46.4,8.859a2.5,2.5,0,0,1-.937,4.911Z"/><path class="cls-6" d="M193.225,279.294c-35.453-6.05-71.267-12.912-106.45-20.4a2.5,2.5,0,0,1,1.04-4.891c35.117,7.47,70.865,14.32,106.25,20.359a2.5,2.5,0,1,1-.84,4.928Z"/><path class="cls-1" d="M115.921,293.645,79.728,286.1a2.5,2.5,0,1,1,1.021-4.894l36.193,7.545a2.5,2.5,0,0,1-1.021,4.895Z"/><path class="cls-6" d="M73.649,302.548A2.5,2.5,0,0,1,75,297.734c23.712,6.664,88.005,24.6,112.516,20.94a2.5,2.5,0,0,1,.737,4.946C162.624,327.442,98.854,309.631,73.649,302.548Z"/><path class="cls-1" d="M102.2,337.655c-12.4-2.727-24.82-6.072-36.912-9.941a2.5,2.5,0,1,1,1.523-4.761c11.945,3.821,24.213,7.125,36.464,9.818a2.5,2.5,0,0,1-1.075,4.884Z"/><path class="cls-6" d="M60.98,344.838a2.5,2.5,0,0,1,1.347-4.815,350.014,350.014,0,0,0,116.43,12.284,2.5,2.5,0,1,1,.313,4.99A355.02,355.02,0,0,1,60.98,344.838Z"/><path class="cls-4" d="M144.014,190.6a27.906,27.906,0,1,1-36.223-15.683A27.92,27.92,0,0,1,144.014,190.6Z"/><path class="cls-8" d="M138.56,219.812a27.91,27.91,0,0,1-47.2-10.859c4.71-2.644,9.672-4.791,15.012-5.227C117.2,202.839,132.241,209.467,138.56,219.812Z"/><path class="cls-8" d="M123.605,181.049c-2.148-1.658-10.574-.406-11.922,9.707-1.116,8.378,5.242,13.28,12.029,7.312,2.608-2.293,4.641-5.469,4.768-8.94A8.422,8.422,0,0,0,123.605,181.049Z"/><path class="cls-9" d="M455.343,418.367c-73.709-39.529-106.1-72.754-116.545-77.23-3.771-1.616-8.234-2.1-11.931-.323a95.268,95.268,0,0,0-32.35-13.312c-5.7-1.23-11.818-1.952-17.24.2-5.661,2.25-9.792,7.428-11.96,13.12s-2.589,11.895-2.576,17.986c.032,15.547,2.729,30.95,5.417,46.262a94.129,94.129,0,0,0,72.937,12.5c30.144,23.242,59.489,47.519,89.269,73.56C447.393,469.357,459.183,435.855,455.343,418.367Z"/><polygon class="cls-6" points="274.785 254.632 278.632 282.089 263.735 284.675 263.032 280.317 259.486 258.349 274.785 254.632"/><circle class="cls-3" cx="259.952" cy="189.648" r="71.795"/><path class="cls-1" d="M318.438,202.568a59.892,59.892,0,1,1-45.57-71.4A59.565,59.565,0,0,1,318.438,202.568Z"/><path class="cls-10" d="M230.5,193.1l15.216,23.646a8.48,8.48,0,0,0,14.2.094l30.07-45.392a6.608,6.608,0,0,0-1.764-9.094h0a6.609,6.609,0,0,0-9.12,1.6l-26.855,37.538-10.635-15.724a6.658,6.658,0,0,0-9.419-1.663h0A6.658,6.658,0,0,0,230.5,193.1Z"/><path class="cls-5" d="M262.8,280.168l15.544-2.424a7.252,7.252,0,0,1,8.261,5.912l21.1,120.3a14.455,14.455,0,0,1-11.647,16.718h0a14.453,14.453,0,0,1-16.8-11.57L256.789,288.663A7.252,7.252,0,0,1,262.8,280.168Z"/><path class="cls-9" d="M319.323,374.762A110.24,110.24,0,0,1,266.976,326.8c-9.63-4.275-18.471-10.618-23.9-19.462a32.594,32.594,0,0,1-4.924-16.659,6.262,6.262,0,0,1,10.432-4.611c7.968,6.852,27.867,16.386,35.958,18.6,6.362,1.741,13.032,2.164,19.376,3.971C315.978,312.068,326.1,320.27,334.9,329.2s16.666,18.818,26.229,28.073c2.544,4.895,5.113,9.853,6.381,15.222,2.585,10.936-1.138,20.25-11.785,24.792-12.588,5.37-20.778-2.347-29.069-13.217C323.919,380.488,321.924,375.9,319.323,374.762Z"/><path class="cls-9" d="M256.223,384.455a35.623,35.623,0,0,0-.837,9.746,12.018,12.018,0,0,0,4.283,8.52c2.07,1.555,4.694,2.129,7.229,2.657,13.584,2.829,19.33,2.893,28.808-2.529,3.943-2.257,4.318-5.233,2.423-8.2C294.755,389.359,276.012,380.673,256.223,384.455Z"/><path class="cls-9" d="M245.431,359.314a53.563,53.563,0,0,0-.268,12.093,17.992,17.992,0,0,0,4.967,10.8c7.792,7.432,36.8,9.183,40.371,7.691,3.061-1.279,3.322-5.607,2.194-8.726-3.083-8.524-12.079-13.439-20.842-15.755S253.814,362.577,245.431,359.314Z"/><path class="cls-9" d="M241.4,334.8c-2.577,5.843-4.19,15.329-2.292,20.148,1.1,2.8,3.54,4.837,6.049,6.492,9.655,6.371,21.377,8.736,32.863,10.111,3.818.457,6.564.086,8.115-3.695,1.5-3.67.281-8.018-2.144-11.156s-5.883-5.291-9.327-7.259A173.484,173.484,0,0,0,241.4,334.8Z"/><path class="cls-9" d="M244.7,304.44c-9.763.752-11.724,3.4-13.329,8.9-2.661,9.113-1.184,13.309,5.046,19.339,8.158,7.9,29.325,23.161,39.284,17.835,4.778-2.555,6.372-9,4.891-14.212s-5.318-9.4-9.279-13.094A119.588,119.588,0,0,0,244.7,304.44Z"/><path class="cls-11" d="M320.322,372.47a107.292,107.292,0,0,1-51.15-46.87,2.5,2.5,0,0,0-1.182-1.091c-10.285-4.565-18.162-10.957-22.78-18.484a30.155,30.155,0,0,1-4.556-15.362,2.5,2.5,0,0,0-2.5-2.489h-.01a2.5,2.5,0,0,0-2.49,2.511,35.223,35.223,0,0,0,5.294,17.955c5.031,8.2,13.4,15.133,24.239,20.09a111.757,111.757,0,0,0,19.484,25.57,2.493,2.493,0,0,0-2.656,3.927c2.131,2.756,2.84,6.163,1.809,8.678-1.049,2.556-2.725,2.494-5.5,2.161-10.306-1.234-22.142-3.353-31.783-9.714a2.5,2.5,0,1,0-2.754,4.173c10.51,6.935,23.056,9.2,33.943,10.506,5.041.6,8.754-.421,10.725-5.229,1.578-3.846.909-8.546-1.71-12.542a111.909,111.909,0,0,0,31.585,20.794,2.5,2.5,0,0,0,2-4.584Z"/><path class="cls-11" d="M353.108,380.986a2.5,2.5,0,0,0-3.223,1.453,85.816,85.816,0,0,0-5.117,21.74,2.5,2.5,0,0,0,4.975.5,80.791,80.791,0,0,1,4.819-20.472A2.5,2.5,0,0,0,353.108,380.986Z"/><path class="cls-11" d="M295.018,388.661a11.566,11.566,0,0,0,.028-8.338,2.5,2.5,0,0,0-4.7,1.7c.778,2.15.637,4.966-.808,5.57-2.868,1.2-30.753-.586-37.681-7.194a2.5,2.5,0,0,0-3.451,3.619c3.373,3.216,7.757,4.646,11.992,5.713,12.206,3.076,27.472,3.875,30.933,2.519.667.585,3.358,1.648,4.693,3.741,1.773,2.779-.115,3.861-1.558,4.687-8.386,4.8-13.027,5.173-27.057,2.251a2.5,2.5,0,0,0-1.019,4.895c13.115,2.732,20.054,3.2,30.559-2.806,5.185-2.968,5.864-7.684,3.29-11.717A14.959,14.959,0,0,0,295.018,388.661Z"/><path class="cls-11" d="M276.882,352.719a2.5,2.5,0,1,0-2.357-4.409c-8.394,4.488-28.654-9.961-36.367-17.428a2.5,2.5,0,0,0-3.477,3.593C243.855,343.356,265.613,358.745,276.882,352.719Z"/></g></svg>
