<?xml version="1.0"?>
<svg xmlns="http://www.w3.org/2000/svg" height="512px" viewBox="0 0 176 176" width="512px"><g id="Layer_2" data-name="Layer 2"><g id="_01.facebook" data-name="01.facebook"><path d="m173 31.48a32.07 32.07 0 0 0 -28.48-28.48 532.59 532.59 0 0 0 -113 0 32.07 32.07 0 0 0 -28.52 28.48 532.59 532.59 0 0 0 0 113 32.06 32.06 0 0 0 28.48 28.52 532.59 532.59 0 0 0 113 0 32.06 32.06 0 0 0 28.52-28.48 532.59 532.59 0 0 0 0-113.04zm-57.12 46.11-1.77 15.32a2.86 2.86 0 0 1 -2.82 2.57h-16l-.08 45.45a2.05 2.05 0 0 1 -2 2.07h-16.21a2 2 0 0 1 -2-2.08v-45.44h-12a2.87 2.87 0 0 1 -2.84-2.9l-.06-15.33a2.88 2.88 0 0 1 2.84-2.92h12.06v-14.8c0-17.18 10.2-26.53 25.16-26.53h12.26a2.88 2.88 0 0 1 2.85 2.92v12.91a2.88 2.88 0 0 1 -2.85 2.92h-7.52c-8.13 0-9.71 4-9.71 9.77v12.81h17.87a2.89 2.89 0 0 1 2.82 3.26z" fill="#e0c667"/></g></g></svg>
