<?xml version="1.0"?>
<svg xmlns="http://www.w3.org/2000/svg" height="512px" viewBox="0 0 176 176" width="512px"><g id="Layer_2" data-name="Layer 2"><g id="_02.youtube" data-name="02.youtube"><path d="m74.84 66.91 34.32 21.09-34.32 21.07z" fill="#e0c667"/><path d="m173 31.47a32.06 32.06 0 0 0 -28.48-28.47 532.59 532.59 0 0 0 -113 0 32.06 32.06 0 0 0 -28.52 28.47 532.59 532.59 0 0 0 0 113 32.06 32.06 0 0 0 28.48 28.53 530 530 0 0 0 113 0 32.06 32.06 0 0 0 28.52-28.49 532.59 532.59 0 0 0 0-113.04zm-32.56 83c-2.2 6.76-9.48 10.87-16.18 11.81a343.16 343.16 0 0 1 -72.5 0c-6.7-.94-14-5-16.18-11.81a137.42 137.42 0 0 1 0-52.93c2.2-6.77 9.48-10.87 16.18-11.81a343.16 343.16 0 0 1 72.5 0c6.7.94 14 5 16.18 11.81a137.42 137.42 0 0 1 -.01 52.92z" fill="#e0c667"/></g></g></svg>
