<?xml version="1.0"?>
<svg xmlns="http://www.w3.org/2000/svg" xmlns:xlink="http://www.w3.org/1999/xlink" xmlns:svgjs="http://svgjs.com/svgjs" version="1.1" width="512" height="512" x="0" y="0" viewBox="0 0 25 25" style="enable-background:new 0 0 512 512" xml:space="preserve"><g><g><path d="m7.2 4.1c.2-.2.4-.2.6-.2s.5.1.6.2l.8.6v-4.3h-2.8v4.3z" fill="#ffffff" data-original="#000000"/><path d="m3 24.4h10c-1.6-1.5-2.7-3.6-2.7-6 0-4.5 3.7-8.1 8.1-8.1.6 0 1.2.1 1.8.2v-7.4c0-1.5-1.2-2.7-2.7-2.7h-6.3v6.4c0 .4-.2.7-.6.9-.2.2-.6.2-.9-.1l-1.8-1.5-1.8 1.5c-.3.2-.7.3-1.1.1-.3-.1-.6-.5-.6-.9v-6.4h-1.4c-1.5 0-2.7 1.2-2.7 2.7v18.7c.1 1.4 1.3 2.6 2.7 2.6z" fill="#ffffff" data-original="#000000"/><path d="m18.5 12.3c-3.4 0-6.1 2.8-6.1 6.1 0 3.4 2.8 6.2 6.1 6.2 3.4 0 6.2-2.8 6.2-6.2-.1-3.4-2.8-6.1-6.2-6.1zm2.2 7h-1.2v1.2c0 .5-.5 1-1 1-.6 0-1-.5-1-1v-1.2h-1.2c-.5 0-1-.5-1-1s.5-1 1-1h1.2v-1.2c0-.5.4-1 1-1 .5 0 1 .5 1 1v1.2h1.2c.5 0 1 .5 1 1s-.5 1-1 1z" fill="#ffffff" data-original="#000000"/></g></g></svg>
